<svg xmlns="http://www.w3.org/2000/svg" xmlns:xlink="http://www.w3.org/1999/xlink" version="1.1" width="1000" height="1000" viewBox="0 0 1000 1000" xml:space="preserve">
<desc>Created with Fabric.js 3.5.0</desc>
<defs>
</defs>
<rect x="0" y="0" width="100%" height="100%" fill="#ffffff"/>
<g transform="matrix(-0.0973 0 0 -0.0973 500.0782 500.0737)" id="327849">
<path style="stroke: none; stroke-width: 1; stroke-dasharray: none; stroke-linecap: butt; stroke-dashoffset: 0; stroke-linejoin: miter; stroke-miterlimit: 4; is-custom-font: none; font-file-url: none; fill: rgb(0,0,0); fill-rule: nonzero; opacity: 1;" vector-effect="non-scaling-stroke" transform=" translate(-5493.6267, -5816.9337)" d="M 5550 10641 c -156 -92 -179 -97 -485 -111 c -143 -6 -263 -14 -268 -17 c -4 -2 -14 0 -21 7 c -32 26 -74 28 -168 8 c -86 -18 -96 -23 -133 -62 c -22 -23 -91 -73 -154 -111 c -63 -37 -171 -104 -240 -147 c -138 -86 -191 -106 -316 -117 c -102 -10 -142 -31 -172 -91 c -29 -56 -29 -84 0 -140 c 28 -56 63 -81 120 -87 c 92 -11 177 62 177 151 c 0 21 7 50 15 65 c 24 47 108 114 181 145 c 38 16 139 63 225 104 l 157 74 l 51 -23 l 51 -24 l 0 -78 c 0 -73 -1 -78 -25 -87 l -25 -10 l 0 -170 l 0 -170 l 25 -12 c 19 -9 25 -19 25 -45 l 0 -33 l -50 0 l -50 0 l 0 -158 l 0 -159 l -152 -6 c -379 -15 -823 -105 -1208 -244 c -836 -302 -1582 -893 -2072 -1643 c -920 -1406 -911 -3229 22 -4622 c 160 -237 314 -423 529 -638 c 675 -672 1515 -1077 2481 -1196 c 112 -14 219 -18 470 -18 c 348 -1 474 10 750 60 c 1282 233 2379 1048 2977 2210 c 240 466 387 966 445 1504 c 17 162 17 647 0 805 c -108 1003 -518 1868 -1213 2564 c -473 473 -1042 821 -1677 1025 c -273 87 -575 151 -837 176 c -66 6 -135 13 -152 16 l -33 5 l 0 159 l 0 160 l -55 0 l -55 0 l 0 34 c 0 29 5 36 30 45 c 26 9 30 15 30 46 l 0 36 l 58 -6 c 925 -105 1811 -454 2537 -1000 c 196 -148 306 -245 515 -454 c 387 -387 603 -682 824 -1121 c 157 -313 267 -609 361 -975 c 87 -336 164 -778 200 -1150 c 8 -88 17 -180 20 -204 c 4 -38 3 -42 -13 -36 c -48 19 -127 45 -139 45 c -8 0 -25 -11 -38 -25 c -29 -28 -34 -94 -10 -119 c 8 -8 60 -29 114 -47 l 98 -32 l 7 -81 c 3 -45 9 -210 13 -368 l 6 -286 l -24 -4 c -30 -4 -34 -25 -49 -268 c -6 -116 -15 -187 -22 -191 c -6 -4 -31 -10 -56 -14 c -54 -8 -228 -68 -292 -100 c -96 -49 -231 -148 -314 -231 c -204 -204 -330 -475 -354 -759 c -25 -300 57 -593 232 -830 c 236 -318 590 -497 986 -497 c 396 0 750 179 986 497 c 321 435 316 1037 -14 1469 c -101 131 -276 277 -422 351 c -64 32 -238 92 -292 100 c -25 4 -51 10 -58 15 c -9 5 -15 58 -21 181 c -12 236 -18 273 -46 277 c -19 3 -22 11 -27 85 c -3 45 -8 193 -11 329 l -5 248 l 65 -25 l 65 -24 l 29 25 c 34 28 49 81 32 112 c -7 14 -42 31 -105 52 l -95 31 l -5 42 c -3 23 -13 123 -21 222 c -42 475 -131 976 -246 1383 c -179 636 -451 1185 -804 1627 c -182 227 -429 488 -633 668 l -104 91 l 59 16 c 135 37 252 130 308 243 c 85 175 63 370 -61 544 c -27 37 -71 82 -105 106 c -32 23 -58 44 -58 47 c 0 3 53 22 118 43 c 174 55 204 92 171 207 c -20 70 -103 97 -242 79 c -104 -13 -135 -19 -338 -74 c -261 -70 -333 -74 -806 -49 c -98 5 -117 4 -158 -14 c -48 -22 -71 -57 -59 -88 c 6 -15 0 -16 -54 -10 c -135 15 -320 78 -556 191 c -210 99 -325 127 -431 105 c -69 -14 -113 -49 -122 -96 c -9 -48 2 -83 39 -117 c 24 -22 27 -28 12 -24 c -84 25 -536 97 -609 97 c -32 0 -35 3 -38 32 c -2 25 -9 34 -28 38 c -24 6 -25 9 -28 102 l -3 97 l 40 11 c 38 10 91 58 91 83 c 0 14 438 88 518 87 c 71 0 115 -21 170 -79 c 39 -41 55 -50 94 -56 c 127 -19 224 112 166 224 c -31 60 -66 83 -130 88 c -41 3 -61 -1 -88 -16 z m 58 -547 c 50 -10 137 -43 252 -96 c 389 -179 505 -208 890 -227 c 124 -6 252 -13 285 -15 c 33 -2 121 -18 195 -36 c 152 -36 185 -35 351 4 c 92 22 97 22 145 6 c 125 -43 188 -96 247 -208 c 49 -92 65 -182 49 -274 c -17 -95 -39 -142 -99 -208 c -62 -68 -129 -106 -209 -119 c -103 -16 -145 -2 -279 94 c -314 227 -629 411 -940 551 c -82 37 -177 83 -210 103 c -160 93 -338 166 -630 257 c -165 51 -239 84 -255 113 c -14 26 9 48 58 56 c 20 4 42 8 47 10 c 18 6 24 5 103 -11 z m -1142 -1576 c -3 -304 -5 -569 -5 -588 c 0 -19 2 -629 5 -1354 l 4 -1320 l -29 -30 c -69 -72 -89 -184 -52 -291 c 13 -38 17 -64 12 -87 c -15 -62 -115 -278 -133 -284 c -9 -3 -27 -21 -38 -40 c -41 -65 -36 -64 -344 -64 c -167 1 -286 5 -298 11 c -10 5 -30 28 -43 49 c -29 47 -48 50 -78 14 c -44 -53 -70 -74 -93 -74 c -24 0 -24 -2 -24 -94 l 0 -93 l 29 -6 c 18 -4 45 -25 72 -57 c 23 -27 48 -50 55 -50 c 7 0 23 18 36 41 c 37 66 42 67 344 68 l 270 2 l 41 -30 c 23 -17 44 -39 48 -50 c 10 -32 51 -27 70 8 c 8 16 27 39 42 51 c 21 16 30 34 35 68 c 3 26 10 68 13 94 c 7 43 6 46 -16 50 c -36 5 -28 33 52 196 c 63 130 72 143 92 139 c 72 -18 102 -18 171 -3 c 67 15 79 22 119 64 c 72 78 85 138 61 274 c -7 42 13 82 65 132 c 17 17 31 40 31 52 c 0 13 24 64 53 113 l 53 91 l 23 -23 l 23 -22 l 21 30 c 12 16 34 42 48 57 l 27 27 l 278 0 c 200 0 285 -3 301 -12 c 12 -7 35 -31 52 -54 c 17 -24 35 -43 40 -43 c 5 0 16 11 24 23 c 27 42 78 87 98 87 c 17 0 19 8 19 90 l 0 90 l -38 19 c -25 13 -45 33 -57 60 c -11 22 -26 41 -33 41 c -23 0 -60 -30 -72 -59 c -6 -16 -22 -33 -34 -39 c -26 -12 -565 -16 -582 -4 c -6 4 -13 15 -17 25 c -4 10 -11 16 -16 12 c -5 -3 -12 3 -16 14 c -3 10 -15 27 -26 37 c -21 19 -21 18 -61 -29 c -22 -26 -47 -47 -57 -47 c -9 0 -25 -7 -35 -15 c -17 -13 -20 -26 -18 -102 c 1 -51 7 -90 13 -94 c 7 -4 -9 -33 -45 -81 c -31 -41 -56 -85 -56 -97 c 0 -12 -19 -54 -42 -94 c -41 -68 -43 -70 -48 -41 c -3 16 -5 112 -4 214 c 1 102 2 947 3 1878 l 1 1693 l 78 -6 c 539 -43 1120 -224 1602 -500 c 523 -299 987 -733 1313 -1227 c 139 -210 148 -227 246 -423 c 214 -429 323 -795 391 -1310 c 18 -135 24 -585 10 -751 c -43 -519 -173 -984 -405 -1444 c -135 -269 -258 -460 -449 -700 c -128 -160 -425 -458 -586 -586 c -531 -424 -1118 -692 -1775 -809 c -557 -100 -1196 -70 -1730 82 c -1009 286 -1833 929 -2355 1838 c -159 277 -279 567 -384 935 c -48 168 -100 494 -115 725 c -18 271 -19 308 -5 490 c 12 165 16 203 30 320 c 31 256 157 726 249 930 c 12 28 32 75 45 105 c 25 61 142 294 191 380 c 61 108 238 367 324 475 c 648 813 1591 1341 2600 1455 c 55 6 132 15 170 19 c 39 5 105 9 148 10 l 78 1 l -5 -552 z m 4759 -5378 c 5 -105 4 -155 -4 -164 c -8 -9 -8 -22 -1 -42 c 5 -16 14 -117 19 -224 c 9 -178 8 -196 -8 -210 c -121 -108 -127 -296 -11 -404 c 112 -104 279 -95 381 21 c 43 50 59 93 61 166 c 2 68 -24 139 -69 188 c -20 22 -23 33 -19 75 c 3 27 7 159 11 294 c 7 338 14 450 29 450 c 38 0 193 -55 261 -92 c 135 -75 187 -113 260 -189 c 195 -206 284 -417 293 -699 c 4 -138 3 -151 -27 -264 c -93 -355 -349 -628 -686 -731 c -353 -107 -740 -20 -998 225 c -146 137 -225 271 -302 505 c -22 67 -30 283 -15 388 c 31 221 126 411 289 580 c 99 104 301 223 441 260 c 94 26 87 36 95 -133 z" stroke-linecap="round"/>
</g>
</svg>