<svg xmlns="http://www.w3.org/2000/svg" version="1.0" preserveAspectRatio="xMidYMid meet" viewBox="35.41 102.21 1027.91 968.2">

<g transform="translate(0.000000,1168.000000) scale(0.100000,-0.100000)" fill="#000000" stroke="none">
<path d="M5550 10641 c-156 -92 -179 -97 -485 -111 -143 -6 -263 -14 -268 -17 -4 -2 -14 0 -21 7 -32 26 -74 28 -168 8 -86 -18 -96 -23 -133 -62 -22 -23 -91 -73 -154 -111 -63 -37 -171 -104 -240 -147 -138 -86 -191 -106 -316 -117 -102 -10 -142 -31 -172 -91 -29 -56 -29 -84 0 -140 28 -56 63 -81 120 -87 92 -11 177 62 177 151 0 21 7 50 15 65 24 47 108 114 181 145 38 16 139 63 225 104 l157 74 51 -23 51 -24 0 -78 c0 -73 -1 -78 -25 -87 l-25 -10 0 -170 0 -170 25 -12 c19 -9 25 -19 25 -45 l0 -33 -50 0 -50 0 0 -158 0 -159 -152 -6 c-379 -15 -823 -105 -1208 -244 -836 -302 -1582 -893 -2072 -1643 -920 -1406 -911 -3229 22 -4622 160 -237 314 -423 529 -638 675 -672 1515 -1077 2481 -1196 112 -14 219 -18 470 -18 348 -1 474 10 750 60 1282 233 2379 1048 2977 2210 240 466 387 966 445 1504 17 162 17 647 0 805 -108 1003 -518 1868 -1213 2564 -473 473 -1042 821 -1677 1025 -273 87 -575 151 -837 176 -66 6 -135 13 -152 16 l-33 5 0 159 0 160 -55 0 -55 0 0 34 c0 29 5 36 30 45 26 9 30 15 30 46 l0 36 58 -6 c925 -105 1811 -454 2537 -1000 196 -148 306 -245 515 -454 387 -387 603 -682 824 -1121 157 -313 267 -609 361 -975 87 -336 164 -778 200 -1150 8 -88 17 -180 20 -204 4 -38 3 -42 -13 -36 -48 19 -127 45 -139 45 -8 0 -25 -11 -38 -25 -29 -28 -34 -94 -10 -119 8 -8 60 -29 114 -47 l98 -32 7 -81 c3 -45 9 -210 13 -368 l6 -286 -24 -4 c-30 -4 -34 -25 -49 -268 -6 -116 -15 -187 -22 -191 -6 -4 -31 -10 -56 -14 -54 -8 -228 -68 -292 -100 -96 -49 -231 -148 -314 -231 -204 -204 -330 -475 -354 -759 -25 -300 57 -593 232 -830 236 -318 590 -497 986 -497 396 0 750 179 986 497 321 435 316 1037 -14 1469 -101 131 -276 277 -422 351 -64 32 -238 92 -292 100 -25 4 -51 10 -58 15 -9 5 -15 58 -21 181 -12 236 -18 273 -46 277 -19 3 -22 11 -27 85 -3 45 -8 193 -11 329 l-5 248 65 -25 65 -24 29 25 c34 28 49 81 32 112 -7 14 -42 31 -105 52 l-95 31 -5 42 c-3 23 -13 123 -21 222 -42 475 -131 976 -246 1383 -179 636 -451 1185 -804 1627 -182 227 -429 488 -633 668 l-104 91 59 16 c135 37 252 130 308 243 85 175 63 370 -61 544 -27 37 -71 82 -105 106 -32 23 -58 44 -58 47 0 3 53 22 118 43 174 55 204 92 171 207 -20 70 -103 97 -242 79 -104 -13 -135 -19 -338 -74 -261 -70 -333 -74 -806 -49 -98 5 -117 4 -158 -14 -48 -22 -71 -57 -59 -88 6 -15 0 -16 -54 -10 -135 15 -320 78 -556 191 -210 99 -325 127 -431 105 -69 -14 -113 -49 -122 -96 -9 -48 2 -83 39 -117 24 -22 27 -28 12 -24 -84 25 -536 97 -609 97 -32 0 -35 3 -38 32 -2 25 -9 34 -28 38 -24 6 -25 9 -28 102 l-3 97 40 11 c38 10 91 58 91 83 0 14 438 88 518 87 71 0 115 -21 170 -79 39 -41 55 -50 94 -56 127 -19 224 112 166 224 -31 60 -66 83 -130 88 -41 3 -61 -1 -88 -16z m58 -547 c50 -10 137 -43 252 -96 389 -179 505 -208 890 -227 124 -6 252 -13 285 -15 33 -2 121 -18 195 -36 152 -36 185 -35 351 4 92 22 97 22 145 6 125 -43 188 -96 247 -208 49 -92 65 -182 49 -274 -17 -95 -39 -142 -99 -208 -62 -68 -129 -106 -209 -119 -103 -16 -145 -2 -279 94 -314 227 -629 411 -940 551 -82 37 -177 83 -210 103 -160 93 -338 166 -630 257 -165 51 -239 84 -255 113 -14 26 9 48 58 56 20 4 42 8 47 10 18 6 24 5 103 -11z m-1142 -1576 c-3 -304 -5 -569 -5 -588 0 -19 2 -629 5 -1354 l4 -1320 -29 -30 c-69 -72 -89 -184 -52 -291 13 -38 17 -64 12 -87 -15 -62 -115 -278 -133 -284 -9 -3 -27 -21 -38 -40 -41 -65 -36 -64 -344 -64 -167 1 -286 5 -298 11 -10 5 -30 28 -43 49 -29 47 -48 50 -78 14 -44 -53 -70 -74 -93 -74 -24 0 -24 -2 -24 -94 l0 -93 29 -6 c18 -4 45 -25 72 -57 23 -27 48 -50 55 -50 7 0 23 18 36 41 37 66 42 67 344 68 l270 2 41 -30 c23 -17 44 -39 48 -50 10 -32 51 -27 70 8 8 16 27 39 42 51 21 16 30 34 35 68 3 26 10 68 13 94 7 43 6 46 -16 50 -36 5 -28 33 52 196 63 130 72 143 92 139 72 -18 102 -18 171 -3 67 15 79 22 119 64 72 78 85 138 61 274 -7 42 13 82 65 132 17 17 31 40 31 52 0 13 24 64 53 113 l53 91 23 -23 23 -22 21 30 c12 16 34 42 48 57 l27 27 278 0 c200 0 285 -3 301 -12 12 -7 35 -31 52 -54 17 -24 35 -43 40 -43 5 0 16 11 24 23 27 42 78 87 98 87 17 0 19 8 19 90 l0 90 -38 19 c-25 13 -45 33 -57 60 -11 22 -26 41 -33 41 -23 0 -60 -30 -72 -59 -6 -16 -22 -33 -34 -39 -26 -12 -565 -16 -582 -4 -6 4 -13 15 -17 25 -4 10 -11 16 -16 12 -5 -3 -12 3 -16 14 -3 10 -15 27 -26 37 -21 19 -21 18 -61 -29 -22 -26 -47 -47 -57 -47 -9 0 -25 -7 -35 -15 -17 -13 -20 -26 -18 -102 1 -51 7 -90 13 -94 7 -4 -9 -33 -45 -81 -31 -41 -56 -85 -56 -97 0 -12 -19 -54 -42 -94 -41 -68 -43 -70 -48 -41 -3 16 -5 112 -4 214 1 102 2 947 3 1878 l1 1693 78 -6 c539 -43 1120 -224 1602 -500 523 -299 987 -733 1313 -1227 139 -210 148 -227 246 -423 214 -429 323 -795 391 -1310 18 -135 24 -585 10 -751 -43 -519 -173 -984 -405 -1444 -135 -269 -258 -460 -449 -700 -128 -160 -425 -458 -586 -586 -531 -424 -1118 -692 -1775 -809 -557 -100 -1196 -70 -1730 82 -1009 286 -1833 929 -2355 1838 -159 277 -279 567 -384 935 -48 168 -100 494 -115 725 -18 271 -19 308 -5 490 12 165 16 203 30 320 31 256 157 726 249 930 12 28 32 75 45 105 25 61 142 294 191 380 61 108 238 367 324 475 648 813 1591 1341 2600 1455 55 6 132 15 170 19 39 5 105 9 148 10 l78 1 -5 -552z m4759 -5378 c5 -105 4 -155 -4 -164 -8 -9 -8 -22 -1 -42 5 -16 14 -117 19 -224 9 -178 8 -196 -8 -210 -121 -108 -127 -296 -11 -404 112 -104 279 -95 381 21 43 50 59 93 61 166 2 68 -24 139 -69 188 -20 22 -23 33 -19 75 3 27 7 159 11 294 7 338 14 450 29 450 38 0 193 -55 261 -92 135 -75 187 -113 260 -189 195 -206 284 -417 293 -699 4 -138 3 -151 -27 -264 -93 -355 -349 -628 -686 -731 -353 -107 -740 -20 -998 225 -146 137 -225 271 -302 505 -22 67 -30 283 -15 388 31 221 126 411 289 580 99 104 301 223 441 260 94 26 87 36 95 -133z"/>
</g>
</svg>