<?xml version="1.0" standalone="no"?>
<!DOCTYPE svg PUBLIC "-//W3C//DTD SVG 20010904//EN"
 "http://www.w3.org/TR/2001/REC-SVG-20010904/DTD/svg10.dtd">
<svg version="1.0" xmlns="http://www.w3.org/2000/svg"
 width="100.000000pt" height="100.000000pt" viewBox="0 0 100.000000 100.000000"
 preserveAspectRatio="xMidYMid meet">

<g transform="translate(0.000000,100.000000) scale(0.100000,-0.100000)"
fill="#000000" stroke="none">
<path d="M394 985 c-254 -55 -427 -309 -385 -562 37 -217 204 -381 421 -414
322 -50 611 239 561 561 -32 209 -185 372 -390 416 -80 17 -127 17 -207 -1z
m94 -252 l-3 -218 -219 -3 -219 -2 7 51 c11 84 76 219 117 245 6 4 76 -57 163
-142 l151 -149 -150 153 -150 153 35 30 c60 51 169 95 243 98 l27 1 -2 -217z
m174 186 c51 -20 132 -70 144 -90 4 -6 -57 -76 -142 -163 l-149 -151 151 149
c87 85 157 146 163 142 41 -26 106 -161 117 -245 l7 -51 -219 2 -219 3 -3 219
-2 219 51 -7 c28 -4 73 -16 101 -27z m-327 -579 c-82 -82 -153 -150 -157 -150
-15 0 -77 95 -97 147 -11 29 -23 75 -27 103 l-7 50 219 0 219 0 -150 -150z
m611 100 c-4 -28 -16 -74 -27 -103 -20 -52 -82 -147 -97 -147 -4 0 -75 68
-157 150 l-150 150 219 0 219 0 -7 -50z m-456 -181 l0 -212 -50 7 c-69 9 -146
40 -204 83 l-49 35 149 149 c82 82 150 149 151 149 2 0 3 -95 3 -211z m314
-91 c-11 -17 -94 -68 -142 -87 -28 -11 -73 -23 -101 -27 l-51 -7 0 214 0 214
149 -149 c83 -83 148 -153 145 -158z"/>
</g>
</svg>
